<?xml version="1.0" encoding="UTF-8" standalone="no"?>
<svg
   xmlns:dc="http://purl.org/dc/elements/1.1/"
   xmlns:cc="http://creativecommons.org/ns#"
   xmlns:rdf="http://www.w3.org/1999/02/22-rdf-syntax-ns#"
   xmlns:svg="http://www.w3.org/2000/svg"
   xmlns="http://www.w3.org/2000/svg"
   xmlns:sodipodi="http://sodipodi.sourceforge.net/DTD/sodipodi-0.dtd"
   xmlns:inkscape="http://www.inkscape.org/namespaces/inkscape"
   version="1.0"
   width="800pt"
   height="500pt"
   viewBox="0 0 800 500"
   preserveAspectRatio="xMidYMid meet"
   id="svg2"
   inkscape:version="0.91 r13725"
   sodipodi:docname="lincolncut.svg">
  <defs
     id="defs50">
    <clipPath
       clipPathUnits="userSpaceOnUse"
       id="clipPath3406">
      <rect
         style="fill:#000000"
         id="rect3408"
         width="17586.609"
         height="8120.5933"
         x="-4420.6777"
         y="-11340.001"
         transform="scale(1,-1)" />
    </clipPath>
  </defs>
  <sodipodi:namedview
     pagecolor="#ffffff"
     bordercolor="#666666"
     borderopacity="1"
     objecttolerance="10"
     gridtolerance="10"
     guidetolerance="10"
     inkscape:pageopacity="0"
     inkscape:pageshadow="2"
     inkscape:window-width="1920"
     inkscape:window-height="1018"
     id="namedview48"
     showgrid="false"
     inkscape:zoom="0.6659612"
     inkscape:cx="779.7141"
     inkscape:cy="340.06375"
     inkscape:window-x="-8"
     inkscape:window-y="-8"
     inkscape:window-maximized="1"
     inkscape:current-layer="svg2" />
  <metadata
     id="metadata4">
Created by potrace 1.10, written by Peter Selinger 2001-2011
<rdf:RDF>
  <cc:Work
     rdf:about="">
    <dc:format>image/svg+xml</dc:format>
    <dc:type
       rdf:resource="http://purl.org/dc/dcmitype/StillImage" />
    <dc:title></dc:title>
  </cc:Work>
</rdf:RDF>
</metadata>
  <g
     transform="matrix(0.05673179,0,0,-0.05673179,154.96395,691.05155)"
     id="g6"
     clip-path="url(#clipPath3406)"
     style="fill:#000000;stroke:none">
    <path
       d="m 4055,11288 c -16,-5 -45,-13 -64,-16 -41,-8 -51,-27 -19,-38 22,-7 22,-7 3,-15 -11,-4 -32,-8 -46,-8 -35,-1 -89,-29 -89,-47 0,-8 -7,-14 -16,-14 -9,0 -18,-9 -21,-20 -5,-17 -11,-18 -72,-13 -36,3 -74,10 -83,14 -23,12 -108,11 -108,-1 0,-5 7,-10 15,-10 8,0 15,-4 15,-10 0,-5 -9,-10 -20,-10 -11,0 -20,5 -20,10 0,15 -32,12 -54,-5 -25,-19 -103,-19 -136,0 -14,8 -42,14 -62,15 -44,0 -70,9 -62,21 3,5 16,9 29,9 29,0 41,16 19,24 -25,10 -52,7 -61,-6 -24,-38 -153,-87 -153,-59 0,17 43,41 72,41 32,0 37,15 9,30 -41,21 -167,-27 -158,-61 4,-15 -3,-20 -32,-25 -58,-10 -98,-41 -161,-123 -68,-91 -151,-169 -189,-177 -14,-4 -33,-12 -41,-18 -8,-6 -31,-20 -50,-30 -42,-24 -128,-103 -141,-131 -5,-11 -18,-35 -29,-53 -11,-18 -36,-83 -56,-145 -52,-162 -78,-226 -122,-300 -7,-12 -10,-34 -8,-48 5,-29 -21,-135 -54,-219 -27,-69 -47,-144 -65,-240 -7,-41 -22,-102 -33,-135 -40,-119 -40,-309 1,-361 l 20,-26 19,23 c 37,48 66,123 61,157 -7,41 22,100 55,113 13,5 22,17 22,29 0,17 46,100 56,100 2,0 14,-12 27,-26 28,-30 55,-27 105,14 32,26 69,105 77,165 2,15 27,60 55,99 27,40 50,82 50,95 0,16 8,27 24,33 14,5 42,27 63,50 29,30 46,40 70,40 17,0 35,5 38,11 4,5 17,15 28,20 12,5 36,18 52,29 17,11 44,26 60,34 17,8 48,25 70,37 80,44 94,49 127,49 18,0 45,6 60,14 50,27 138,30 205,7 34,-11 92,-23 129,-25 38,-3 87,-10 109,-15 22,-6 100,-11 173,-11 73,0 142,-5 152,-10 15,-8 24,-6 40,10 25,25 31,25 80,1 22,-11 42,-16 45,-12 2,5 37,11 77,14 40,4 95,14 121,23 26,9 57,14 69,11 26,-7 91,33 115,70 25,41 75,93 103,108 14,7 80,16 146,20 141,8 140,9 294,-89 115,-73 176,-134 220,-221 3,-5 12,-21 21,-35 9,-14 24,-60 34,-103 17,-70 23,-80 58,-104 27,-19 37,-32 34,-45 -3,-10 -2,-18 2,-18 10,0 49,39 79,79 30,40 42,39 42,-4 0,-24 -9,-45 -30,-68 -19,-23 -30,-45 -30,-65 0,-30 -6,-40 -43,-65 -25,-17 -27,-109 -4,-135 12,-13 17,-36 17,-74 0,-31 7,-69 15,-84 18,-35 20,-131 3,-136 -7,-3 -12,-27 -12,-65 -1,-57 -3,-62 -42,-99 -23,-22 -49,-54 -58,-72 -9,-18 -27,-34 -42,-38 -23,-6 -25,-10 -22,-58 3,-50 2,-51 -27,-54 -43,-5 -53,-19 -22,-31 30,-12 31,-14 17,-42 -16,-29 -56,-24 -72,9 -7,15 -23,28 -36,30 -34,5 -46,36 -28,71 13,25 14,31 1,41 -19,16 -35,4 -35,-26 0,-25 -18,-32 -37,-13 -11,11 -54,2 -110,-24 -12,-5 -36,-7 -53,-4 -22,5 -32,3 -36,-8 -4,-10 -17,-12 -53,-8 -33,4 -67,-1 -112,-15 -101,-31 -155,-42 -212,-42 -49,0 -56,-3 -96,-44 -28,-28 -56,-47 -77,-51 -20,-3 -41,-16 -49,-29 -9,-13 -26,-28 -40,-34 -14,-6 -25,-18 -25,-26 0,-7 -7,-19 -15,-26 -8,-6 -13,-22 -12,-33 2,-18 -6,-24 -38,-33 -58,-15 -75,-24 -75,-40 0,-10 15,-14 59,-14 54,0 62,-3 85,-31 21,-25 26,-41 26,-89 0,-68 7,-90 26,-90 15,0 27,-8 65,-42 25,-23 26,-23 44,12 11,20 23,30 39,30 13,0 29,7 36,15 7,8 20,15 30,15 20,0 82,29 92,44 10,15 95,34 110,25 7,-5 23,-9 34,-9 12,0 27,-7 34,-15 16,-19 79,-19 104,0 33,25 62,19 76,-16 7,-17 28,-47 46,-66 31,-33 36,-34 65,-24 18,6 43,11 56,11 13,0 32,6 43,12 16,10 25,9 52,-7 18,-10 38,-25 43,-32 8,-11 16,-8 40,17 32,34 47,37 65,15 9,-11 27,-15 54,-13 l 41,3 3,63 c 3,53 7,65 27,78 29,19 45,11 45,-21 0,-29 34,-109 60,-143 19,-23 19,-27 5,-48 -8,-13 -15,-41 -15,-62 0,-23 -6,-45 -15,-52 -8,-7 -15,-21 -15,-31 0,-10 -8,-23 -19,-28 -16,-9 -18,-19 -13,-80 5,-70 4,-71 -32,-111 -20,-22 -36,-47 -36,-55 0,-27 -94,-114 -131,-122 -19,-3 -40,-14 -47,-24 -7,-10 -33,-28 -58,-41 -31,-15 -54,-36 -71,-65 -15,-26 -32,-43 -43,-43 -12,0 -23,-12 -31,-35 -9,-23 -22,-38 -36,-41 -13,-4 -23,-12 -23,-19 0,-7 -10,-19 -22,-27 -19,-12 -20,-18 -11,-30 18,-21 -33,-118 -63,-118 -25,0 -94,64 -94,88 0,9 -9,23 -20,30 -11,7 -20,23 -20,37 0,13 -11,37 -25,52 -58,63 -72,80 -105,123 -19,25 -40,50 -46,55 -23,21 -64,82 -64,96 0,8 -5,20 -12,27 -24,24 -34,75 -24,125 12,64 -2,97 -38,90 -21,-4 -26,-1 -26,15 0,12 -10,31 -22,42 l -23,21 -5,-23 c -4,-14 -15,-24 -28,-26 -12,-2 -22,-7 -22,-11 0,-16 27,-31 43,-25 24,9 41,-5 27,-21 -7,-8 -9,-28 -5,-48 5,-27 1,-42 -24,-79 -23,-33 -31,-58 -31,-89 -1,-24 -7,-55 -15,-69 -8,-14 -15,-34 -15,-45 -1,-27 -28,-57 -70,-76 -152,-70 -156,-72 -180,-59 -36,19 -125,4 -137,-23 -9,-20 -17,-22 -94,-22 -69,0 -84,-3 -87,-16 -5,-24 41,-49 111,-59 127,-18 160,-36 172,-91 8,-38 17,-42 51,-25 67,33 80,31 113,-16 73,-103 111,-131 154,-110 12,6 31,12 42,14 11,2 22,14 25,28 4,17 8,21 14,12 12,-20 33,-14 40,13 4,15 16,27 30,31 34,8 56,67 51,134 -2,30 -4,62 -3,70 0,8 0,41 0,73 -1,65 17,77 42,29 8,-16 22,-35 32,-42 9,-8 39,-48 67,-90 27,-41 96,-120 152,-175 120,-118 139,-145 130,-185 l -6,-30 -29,21 c -35,26 -61,22 -78,-14 -10,-21 -17,-25 -29,-19 -9,6 -27,5 -44,-1 -24,-10 -32,-8 -52,11 -21,20 -30,21 -85,16 -37,-4 -63,-12 -66,-20 -3,-8 -15,-14 -26,-14 -11,0 -23,-6 -26,-14 -8,-21 -97,-40 -123,-27 -11,6 -39,11 -63,11 -24,0 -52,7 -62,15 -11,8 -28,15 -39,15 -22,0 -71,-26 -104,-54 -12,-10 -43,-22 -69,-27 -40,-8 -51,-6 -68,10 -41,37 -63,42 -146,35 -44,-4 -83,-11 -86,-15 -3,-5 -22,-9 -42,-10 -20,0 -46,-4 -56,-8 -18,-7 -18,-8 5,-14 13,-4 76,-7 139,-7 80,-1 127,-6 155,-17 30,-11 85,-16 215,-19 208,-3 253,-9 303,-37 41,-23 44,-40 6,-45 -13,-2 -29,-8 -34,-12 -38,-31 -224,-62 -350,-59 -38,1 -126,2 -195,2 -69,0 -163,0 -210,1 -50,0 -86,-3 -86,-9 -1,-5 25,-17 58,-26 60,-17 128,-68 128,-97 0,-11 34,-13 183,-11 143,2 187,0 204,-11 18,-12 25,-12 35,-2 24,24 54,13 82,-28 l 27,-41 -36,-14 c -19,-9 -35,-22 -35,-30 0,-23 -29,-30 -43,-11 -18,24 -47,10 -54,-25 -8,-40 -20,-45 -47,-20 -31,29 -39,27 -71,-21 -34,-51 -78,-95 -106,-103 -11,-4 -19,-15 -19,-30 0,-13 -10,-29 -25,-39 -24,-16 -27,-16 -55,4 -26,18 -30,28 -36,90 -6,63 -9,70 -28,70 -11,0 -32,-12 -45,-25 -36,-38 -59,-28 -47,21 5,20 11,24 29,19 15,-4 18,-3 9,3 -11,7 -12,25 -7,75 7,64 6,66 -16,71 -36,8 -117,16 -185,19 -51,2 -66,7 -96,32 -20,17 -39,40 -42,53 -5,18 -11,21 -31,16 -27,-7 -33,4 -13,24 15,15 3,15 -36,1 -18,-7 -37,-24 -46,-42 -18,-37 -38,-46 -46,-20 -10,27 -45,63 -63,63 -8,0 -30,6 -49,12 -31,12 -35,11 -52,-12 -11,-14 -20,-43 -22,-64 -2,-22 -9,-41 -15,-44 -7,-2 -13,2 -13,8 0,7 -14,32 -30,57 -38,56 -38,71 4,88 18,8 36,22 40,30 9,25 7,30 -6,17 -7,-7 -31,-12 -55,-12 -42,0 -43,-1 -43,-34 0,-38 -28,-66 -66,-66 -12,0 -28,-7 -35,-16 -11,-14 -9,-24 16,-70 16,-29 35,-56 42,-58 8,-4 13,-24 13,-57 0,-49 1,-51 25,-47 28,6 44,-24 26,-46 -11,-13 -24,-108 -22,-161 0,-16 7,-34 14,-40 19,-14 47,-70 47,-93 0,-11 7,-25 15,-32 8,-7 15,-25 15,-41 0,-28 1,-29 38,-23 34,5 40,3 56,-20 9,-15 15,-30 12,-34 -3,-5 2,-28 10,-51 14,-42 11,-103 -11,-201 -9,-36 78,-140 118,-140 17,0 27,5 27,15 0,28 36,15 64,-22 15,-21 33,-47 41,-58 15,-20 15,-20 36,5 l 21,25 -6,-42 c -5,-37 -4,-43 12,-43 10,0 31,-13 47,-30 33,-35 60,-38 75,-10 6,11 20,25 31,31 17,9 25,7 43,-10 12,-12 31,-21 42,-21 10,0 31,-15 46,-33 24,-31 33,-35 100,-42 95,-10 133,-8 167,9 15,8 55,18 90,22 42,4 74,15 99,32 105,72 154,103 179,113 15,5 56,32 92,58 88,65 121,80 167,79 21,-1 59,8 84,19 80,35 110,42 136,33 25,-10 67,0 79,19 3,6 15,11 26,11 19,0 30,16 33,48 1,10 16,45 33,78 34,65 85,107 121,97 15,-3 26,7 51,46 18,30 43,56 59,62 41,16 62,39 62,70 0,15 4,30 9,34 10,6 71,-63 71,-81 0,-6 7,-17 16,-25 24,-19 54,-85 54,-116 0,-29 -22,-104 -47,-163 -9,-19 -21,-48 -29,-65 -7,-16 -27,-61 -44,-100 -44,-95 -61,-135 -76,-170 -28,-69 -78,-163 -106,-197 -25,-32 -36,-38 -68,-38 -21,0 -51,6 -67,14 -137,67 -385,125 -531,126 -113,0 -164,-30 -133,-79 15,-24 -8,-55 -52,-72 -96,-36 -115,-42 -172,-50 -33,-5 -96,-17 -140,-25 -152,-31 -190,-35 -328,-36 -123,0 -141,2 -180,23 -23,12 -55,23 -72,25 -16,1 -49,6 -73,10 -70,11 -185,-43 -284,-136 -66,-61 -116,-100 -128,-100 -3,0 -15,8 -27,18 -36,27 -46,136 -28,313 14,139 21,176 50,284 43,158 52,212 38,226 -6,6 -19,-2 -36,-23 -14,-18 -44,-53 -66,-78 -23,-25 -41,-49 -41,-55 0,-5 -14,-26 -31,-45 -38,-43 -125,-168 -149,-215 -27,-53 -62,-110 -75,-125 -8,-9 -15,-21 -15,-26 0,-5 -16,-33 -36,-62 -35,-50 -99,-92 -141,-92 -23,0 -230,-105 -288,-146 -17,-12 -82,-47 -145,-78 -63,-32 -128,-66 -145,-77 -16,-10 -37,-22 -45,-26 -8,-3 -31,-19 -51,-35 -20,-15 -40,-28 -44,-28 -4,0 -24,-14 -45,-30 -21,-17 -40,-30 -43,-30 -4,0 -28,-13 -54,-28 -26,-15 -77,-38 -113,-50 -112,-37 -133,-44 -210,-75 -41,-17 -82,-36 -91,-44 -8,-7 -19,-13 -22,-13 -4,0 -43,-25 -86,-55 -86,-58 -132,-81 -199,-96 -23,-5 -60,-20 -80,-33 -51,-31 -84,-36 -174,-24 -71,9 -80,8 -123,-13 C 236,3944 39,3753 15,3706 2,3681 0,3446 0,1839 L 0,0 l 4500,0 4500,0 0,1795 c 0,1544 -2,1795 -14,1795 -8,0 -18,14 -21,31 -4,18 -20,54 -36,81 -16,27 -29,54 -29,59 0,25 -114,159 -159,188 -52,34 -77,37 -168,18 -64,-12 -98,-1 -168,60 -55,47 -222,133 -260,133 -14,0 -128,57 -180,91 -16,10 -39,23 -50,29 -11,6 -38,21 -60,33 -90,51 -129,68 -200,87 -16,4 -56,19 -89,34 -32,14 -64,26 -71,26 -7,0 -18,7 -25,15 -7,8 -20,15 -30,15 -9,0 -39,12 -66,26 -27,15 -71,33 -99,41 -62,19 -245,93 -317,130 -14,7 -35,13 -45,13 -11,0 -28,7 -39,15 -10,8 -27,15 -36,15 -10,0 -32,6 -50,14 -18,8 -53,22 -78,32 -25,11 -87,47 -138,81 -158,104 -459,241 -577,262 -59,11 -91,32 -175,113 -133,129 -227,246 -342,426 -26,42 -118,228 -118,240 0,22 -44,84 -66,92 -32,12 -43,69 -18,87 11,8 29,23 42,33 30,27 57,25 70,-6 7,-14 17,-22 22,-19 14,9 12,76 -4,104 -12,21 -11,31 1,68 9,24 26,63 39,86 13,23 28,52 33,64 5,11 15,24 20,28 23,14 12,98 -21,162 -30,59 -31,63 -15,81 14,15 15,23 5,49 -10,26 -8,34 11,61 24,34 36,137 18,160 -7,9 -6,20 2,35 9,17 9,30 2,50 -10,25 -8,29 15,37 20,8 24,15 19,28 -4,9 -10,29 -13,45 -2,15 -13,32 -23,38 -25,13 -23,28 5,63 20,24 27,26 44,17 48,-25 181,7 216,52 21,28 15,62 -12,69 -32,9 -71,170 -47,198 7,8 20,44 29,78 17,66 33,87 96,122 62,35 70,45 70,89 0,23 9,59 20,81 11,22 20,49 20,60 0,29 43,24 48,-5 6,-31 52,-61 52,-33 0,6 8,20 17,30 9,10 18,38 19,63 2,24 10,58 19,75 9,17 18,54 21,83 6,52 13,76 40,130 8,16 14,38 14,50 1,12 7,33 15,47 9,16 14,54 15,103 0,88 -21,142 -83,211 -38,42 -42,55 -62,191 -12,86 -26,137 -48,180 -18,35 -68,178 -89,253 -16,60 -18,83 -10,135 10,65 2,138 -24,210 -22,60 -18,108 12,136 14,13 28,37 31,53 7,38 45,57 69,37 16,-13 17,-11 11,13 -4,15 -3,30 3,33 24,15 -1,120 -42,174 -21,28 -7,55 23,46 27,-9 24,2 -21,61 -44,59 -153,146 -217,173 -11,6 -24,14 -27,20 -4,5 -30,9 -59,8 -45,-2 -58,2 -92,29 -58,44 -105,54 -281,59 -145,4 -159,6 -181,27 -12,12 -23,32 -23,45 0,37 -38,143 -83,230 -34,66 -56,94 -117,147 -41,36 -81,66 -89,66 -8,0 -26,11 -40,24 -31,28 -157,84 -212,92 -21,4 -44,13 -50,20 -6,8 -20,14 -31,14 -18,0 -83,14 -215,45 -69,17 -153,18 -198,3 z m -480,-252 c 27,-22 28,-25 12,-31 -10,-5 -25,-1 -35,7 -9,8 -25,18 -34,21 -10,4 -18,11 -18,17 0,19 45,10 75,-14 z m -560,-46 c 3,-6 -1,-13 -10,-16 -19,-8 -30,0 -20,15 8,14 22,14 30,1 z m 325,-4 c 6,-8 23,-16 37,-18 15,-2 28,-9 31,-15 6,-19 -63,-17 -78,2 -7,8 -23,15 -36,15 -24,0 -38,12 -27,24 12,11 60,6 73,-8 z m -114,-170 c 15,-11 31,-12 68,-5 54,10 66,6 66,-21 0,-21 19,-30 64,-30 39,0 50,-8 35,-26 -16,-20 -2,-34 36,-34 36,0 54,-15 37,-32 -7,-7 -16,-6 -29,0 -15,8 -26,6 -48,-8 -19,-12 -34,-16 -44,-10 -9,4 -36,4 -61,0 -25,-5 -47,-6 -50,-3 -3,2 -9,28 -15,56 l -10,52 -82,3 c -75,3 -83,5 -83,22 0,14 7,20 24,20 13,0 29,7 36,15 16,19 30,19 56,1 z m 239,-5 c 3,-5 0,-13 -5,-16 -15,-9 -60,3 -60,15 0,13 57,13 65,1 z m -237,-91 c 2,-10 -17,-22 -60,-38 -74,-26 -88,-27 -88,-7 0,13 38,36 95,56 29,10 49,6 53,-11 z m -683,-142 c -4,-13 -13,-30 -21,-38 -12,-12 -14,-10 -14,16 0,34 6,44 27,44 10,0 12,-7 8,-22 z m 593,-40 c -3,-8 -21,-13 -43,-13 -22,0 -40,5 -42,13 -3,8 9,12 42,12 33,0 45,-4 43,-12 z M 5540,9169 c 0,-10 -4,-19 -10,-19 -5,0 -10,12 -10,26 0,14 4,23 10,19 6,-3 10,-15 10,-26 z M 4397,7543 c 36,-47 59,-101 47,-112 -16,-13 -91,-31 -107,-25 -17,6 -32,56 -28,93 3,27 37,81 51,81 5,0 21,-17 37,-37 z m 485,-809 c 9,-20 9,-29 0,-42 -7,-9 -19,-30 -26,-47 -11,-23 -21,-30 -43,-30 -40,0 -45,-19 -5,-23 17,-2 32,-7 32,-12 0,-5 3,-16 6,-24 5,-13 -1,-16 -32,-15 -132,4 -150,17 -89,66 19,15 35,33 35,39 0,6 16,27 35,47 19,20 35,43 35,52 0,25 39,18 52,-11 z m -227,-125 c 9,-14 -23,-49 -45,-49 -28,0 -30,12 -7,36 24,26 42,30 52,13 z m -135,-94 c 0,-8 -7,-15 -15,-15 -16,0 -20,12 -8,23 11,12 23,8 23,-8 z m -1472,-62 c 2,-33 0,-43 -12,-43 -8,0 -20,8 -26,18 -8,12 -13,13 -16,5 -7,-17 -24,-17 -24,0 0,7 6,25 13,40 9,21 18,27 37,25 22,-3 25,-9 28,-45 z m 2378,-32 c 6,-29 4,-33 -12,-29 -20,3 -30,38 -19,65 8,22 23,5 31,-36 z m -972,1 c 14,-23 -61,-61 -82,-40 -6,6 -16,7 -26,1 -24,-13 -86,-4 -86,13 0,10 14,14 53,14 28,0 59,5 67,10 18,12 67,13 74,2 z m -1546,-29 c 14,-30 16,-73 4,-73 -13,0 -42,68 -36,85 9,22 17,18 32,-12 z m -30,-55 c -7,-19 -38,-22 -38,-4 0,10 9,16 21,16 12,0 19,-5 17,-12 z m 1402,-4 c 0,-17 -22,-14 -28,4 -2,7 3,12 12,12 9,0 16,-7 16,-16 z m -60,-104 c 0,-10 -4,-21 -9,-25 -12,-7 -25,31 -16,45 9,15 25,2 25,-20 z m -780,-15 c 0,-8 -4,-15 -9,-15 -13,0 -22,16 -14,24 11,11 23,6 23,-9 z m 658,-186 c -2,-26 -8,-34 -23,-34 -26,0 -30,27 -9,60 21,32 37,20 32,-26 z m 612,-1134 c 23,-25 23,-25 5,-59 -21,-39 -15,-63 19,-76 19,-7 25,-17 28,-47 4,-48 21,-46 28,4 4,33 9,38 33,41 15,2 27,9 27,18 0,35 59,-12 60,-48 0,-10 14,-24 30,-33 17,-9 30,-24 30,-34 0,-18 -72,-71 -185,-137 -27,-16 -59,-34 -70,-41 -11,-7 -27,-15 -35,-19 -8,-3 -28,-12 -45,-19 -16,-8 -37,-16 -45,-19 -8,-4 -28,-15 -45,-26 -60,-40 -85,-38 -85,4 0,27 -22,93 -46,138 -19,35 -18,107 2,129 14,16 14,20 0,47 -9,17 -29,34 -46,40 -16,6 -30,13 -30,16 0,17 65,76 85,76 12,0 28,7 35,15 7,8 21,15 31,15 10,0 34,8 54,17 29,14 38,15 59,4 20,-11 28,-11 47,3 30,21 31,21 59,-9 z m 467,-121 c 12,-8 29,-14 37,-14 17,0 136,-110 136,-127 0,-6 -27,-38 -60,-72 -37,-39 -57,-67 -54,-76 4,-9 0,-15 -9,-15 -8,0 -17,6 -20,13 -4,9 -7,9 -18,-1 -12,-11 -12,-14 1,-22 12,-7 12,-12 2,-22 -6,-6 -12,-8 -12,-3 0,4 -13,-19 -30,-51 -16,-33 -40,-70 -52,-81 -29,-27 -169,-83 -207,-83 -16,0 -35,-7 -42,-16 -20,-24 -300,-17 -325,8 -22,22 -9,39 50,66 23,11 63,37 89,56 26,20 53,36 60,36 38,1 206,84 223,111 4,6 24,8 53,4 45,-6 47,-5 99,45 54,53 62,73 37,106 -8,10 -15,33 -15,51 0,24 -8,38 -30,55 -16,12 -30,27 -30,34 0,26 74,25 117,-2 z m -887,-40 c 11,-25 20,-54 20,-64 0,-11 6,-23 13,-27 16,-11 39,-69 44,-118 3,-22 11,-47 18,-55 18,-22 46,-125 39,-145 -5,-12 -16,-15 -43,-13 -35,3 -36,4 -36,41 0,34 -4,40 -31,52 -44,18 -78,69 -70,105 4,23 1,32 -14,40 -12,7 -20,21 -20,38 0,29 -17,82 -38,120 -18,32 -12,44 34,58 60,18 63,17 84,-32 z m -735,-25 c 133,-28 136,-29 126,-46 -5,-9 -25,-16 -46,-18 -23,-1 -41,-9 -47,-19 -5,-9 -18,-16 -28,-16 -28,0 -32,-14 -9,-34 14,-12 19,-25 15,-39 -3,-12 -6,-30 -6,-39 0,-9 -39,-46 -90,-84 -76,-56 -90,-71 -90,-95 0,-41 16,-44 56,-9 25,21 41,29 53,24 21,-10 48,-10 94,-1 61,13 42,-24 -38,-73 -49,-30 -62,-45 -75,-90 -12,-38 -89,-110 -119,-110 -10,0 -28,-11 -41,-25 -17,-18 -34,-25 -61,-25 -21,0 -42,-7 -49,-15 -12,-14 -15,-14 -30,0 -12,11 -20,13 -25,6 -11,-18 -30,-12 -40,12 -7,14 -20,23 -40,25 -60,7 -96,69 -57,98 13,10 14,15 5,24 -17,18 -68,-2 -66,-25 1,-10 -10,-35 -23,-56 -13,-21 -24,-45 -24,-53 0,-9 -7,-31 -16,-50 -20,-40 -15,-57 17,-73 128,-62 211,-98 262,-114 59,-19 65,-19 122,-4 33,9 74,23 90,30 17,7 66,27 110,45 44,17 94,37 110,45 102,44 122,49 183,50 37,0 77,6 89,13 26,15 83,16 83,2 0,-22 36,-8 75,29 40,39 42,39 165,55 69,9 142,16 162,16 46,0 136,38 143,60 15,47 68,49 85,4 19,-49 81,-51 106,-3 14,28 18,29 83,29 77,0 97,-13 93,-61 -1,-16 5,-40 14,-54 18,-28 13,-79 -13,-130 -9,-16 -19,-37 -23,-46 -16,-32 -62,-115 -81,-144 -10,-16 -23,-39 -29,-50 -6,-11 -25,-47 -43,-80 -19,-33 -58,-107 -88,-165 -65,-123 -80,-150 -96,-170 -6,-8 -35,-60 -63,-115 -28,-55 -56,-104 -61,-109 -5,-6 -9,-15 -9,-22 0,-7 -22,-45 -49,-86 -42,-64 -134,-207 -168,-263 -7,-11 -24,-42 -38,-70 -14,-27 -34,-63 -45,-80 -19,-31 -27,-44 -74,-130 -15,-27 -43,-77 -61,-110 -19,-33 -53,-96 -76,-140 -52,-101 -62,-120 -76,-136 -6,-8 -26,-43 -45,-79 -20,-36 -44,-81 -56,-100 -19,-32 -88,-166 -174,-335 -20,-38 -70,-142 -113,-230 -43,-88 -93,-193 -113,-233 -19,-39 -38,-72 -42,-72 -20,0 -48,79 -70,195 -9,50 -28,126 -46,184 -8,25 -14,53 -14,64 0,11 -7,40 -15,66 -8,25 -21,82 -30,126 -19,90 -39,176 -61,251 -8,28 -14,59 -14,69 0,10 -6,41 -14,69 -8,28 -21,85 -30,126 -8,41 -22,109 -30,150 -8,41 -22,118 -31,170 -9,52 -23,129 -31,170 -8,42 -14,92 -14,113 0,20 -6,72 -14,114 -17,91 -45,296 -50,368 -2,28 -9,93 -15,145 -7,52 -19,147 -27,211 -8,63 -14,155 -14,205 0,49 -5,127 -10,172 -25,200 -10,463 33,545 47,91 104,99 202,31 39,-26 112,-64 126,-64 6,0 27,14 46,30 18,17 42,30 53,30 28,0 52,54 57,130 6,91 10,108 31,113 35,9 209,-5 297,-24 z m 354,-60 c 25,-20 25,-20 41,-1 8,11 32,23 53,26 32,6 37,4 37,-12 0,-10 -5,-23 -12,-30 -9,-9 -6,-12 14,-12 18,0 27,-6 32,-22 4,-19 8,-20 18,-10 11,11 10,15 -4,23 -27,15 -21,29 11,29 25,0 31,-6 44,-42 23,-65 31,-184 12,-192 -8,-3 -18,0 -22,7 -7,12 -9,17 -11,50 -3,29 -37,20 -49,-13 -12,-33 -51,-42 -72,-16 -7,8 -35,26 -64,41 -29,15 -68,46 -87,69 -31,37 -38,42 -57,33 -21,-9 -23,-17 -23,-93 0,-75 -10,-107 -27,-90 -3,3 -7,55 -8,116 -2,71 -7,116 -16,126 -16,19 -3,31 41,37 57,7 122,-3 149,-24 z m 1179,-806 c -4,-39 -28,-42 -28,-4 0,21 5,31 16,31 11,0 14,-8 12,-27 z m -32,-113 c -2,-22 -6,-43 -10,-47 -3,-3 -6,-17 -6,-29 0,-13 -9,-28 -21,-34 -12,-7 -18,-17 -15,-27 3,-8 -3,-35 -14,-60 -11,-25 -20,-56 -20,-68 0,-13 -7,-25 -15,-29 -10,-4 -15,-20 -15,-53 -1,-51 -28,-118 -45,-112 -19,8 7,135 33,161 7,7 12,29 12,49 0,20 6,42 14,48 8,7 16,28 19,49 5,38 30,114 47,144 6,10 10,25 10,33 0,8 7,15 15,15 11,0 14,-10 11,-40 z m -173,-504 c 3,-7 0,-19 -6,-25 -8,-8 -6,-16 7,-30 17,-19 17,-20 -1,-32 -13,-8 -18,-20 -15,-34 2,-13 -1,-26 -7,-29 -6,-4 -11,-17 -11,-29 0,-13 -6,-32 -14,-43 -8,-11 -16,-33 -18,-49 -1,-16 -9,-30 -15,-33 -18,-5 -17,47 2,91 8,20 15,47 15,61 0,13 7,31 15,40 13,12 20,48 25,119 0,12 18,8 23,-7 z m -97,-376 c 3,-32 1,-40 -12,-40 -13,0 -15,7 -10,31 3,17 6,38 6,47 0,31 13,1 16,-38 z m -30,-96 c -4,-12 -10,-14 -17,-7 -5,5 -7,17 -3,27 4,12 10,14 17,7 5,-5 7,-17 3,-27 z m -32,-157 c -3,-9 -13,-17 -21,-17 -8,0 -12,3 -10,8 2,4 7,16 11,26 4,13 10,16 17,9 5,-5 7,-17 3,-26 z m -78,-259 c -10,-6 -20,-7 -24,-3 -9,8 20,25 31,18 5,-3 2,-10 -7,-15 z"
       id="path8"
       inkscape:connector-curvature="0" />
    <path
       d="m 3332,10718 c 5,-15 57,-18 61,-3 1,6 -13,11 -32,13 -24,3 -32,0 -29,-10 z"
       id="path10"
       inkscape:connector-curvature="0" />
    <path
       d="m 2966,4212 c -3,-6 -1,-14 5,-17 15,-10 25,3 12,16 -7,7 -13,7 -17,1 z"
       id="path12"
       inkscape:connector-curvature="0" />
    <path
       d="m 2240,9245 c -7,-9 -13,-29 -12,-46 l 1,-31 -52,4 c -51,3 -51,2 -80,-40 -33,-48 -67,-165 -67,-228 0,-25 -6,-47 -15,-54 -8,-7 -15,-23 -15,-35 0,-12 -7,-28 -16,-35 -9,-9 -14,-26 -12,-49 2,-28 8,-36 28,-41 22,-5 26,-12 31,-65 8,-74 -5,-132 -30,-140 -27,-8 -71,-76 -78,-118 -6,-41 12,-97 33,-97 7,0 32,25 55,56 23,30 55,62 70,70 26,13 33,12 73,-7 24,-11 55,-36 67,-54 24,-35 79,-68 95,-57 5,4 20,29 34,55 14,27 33,63 42,80 18,34 24,92 9,101 -22,14 -19,206 4,299 7,28 -4,63 -31,97 -7,8 -14,26 -16,40 -2,19 -9,25 -28,25 -24,0 -25,-1 -22,-67 4,-80 -9,-112 -41,-102 -33,10 -39,18 -28,46 6,16 5,62 -3,134 -14,120 -8,149 30,158 20,5 23,10 14,26 -5,10 -10,32 -10,49 0,36 -13,47 -30,26 z"
       id="path14"
       inkscape:connector-curvature="0" />
    <path
       d="m 2147,9231 c -5,-22 0,-31 20,-31 7,0 13,11 13,25 0,30 -25,34 -33,6 z"
       id="path16"
       inkscape:connector-curvature="0" />
    <path
       d="m 3024,8706 c -3,-7 -4,-17 -3,-22 5,-29 -4,-44 -28,-50 -16,-4 -44,-20 -64,-35 -42,-33 -59,-36 -59,-11 1,23 29,54 63,69 15,7 27,17 27,23 0,15 -53,12 -88,-6 -29,-14 -32,-20 -32,-64 0,-40 -4,-51 -25,-67 -22,-15 -26,-28 -29,-76 -2,-35 -9,-64 -19,-75 -17,-19 -22,-44 -11,-55 4,-3 21,5 39,18 17,14 35,22 38,18 15,-14 6,-33 -22,-48 -34,-17 -50,-53 -30,-66 7,-4 20,-4 29,1 8,4 27,6 43,3 22,-4 26,-9 21,-29 -7,-27 1,-29 36,-9 14,8 51,14 83,15 32,0 68,6 80,14 54,34 101,26 126,-21 10,-19 20,-23 63,-23 44,0 55,4 73,26 19,23 23,25 48,13 15,-7 27,-20 27,-30 0,-10 4,-20 8,-23 11,-6 79,17 94,32 7,7 16,12 21,12 5,0 24,7 43,16 32,15 36,15 53,0 25,-23 48,-20 67,9 11,17 14,36 10,57 -4,24 0,43 15,67 13,21 18,43 15,57 -5,18 1,28 26,45 56,39 60,65 8,54 -16,-3 -31,-2 -35,4 -3,6 -15,11 -25,11 -17,0 -47,48 -63,101 -6,18 -48,29 -107,29 -20,0 -40,3 -43,6 -4,4 -21,8 -39,10 -18,2 -56,6 -83,10 -28,3 -75,1 -105,-4 -31,-6 -62,-6 -71,-2 -9,6 -33,2 -63,-8 -45,-16 -48,-16 -57,1 -12,20 -47,23 -55,3 z m 26,-331 c 0,-14 -29,-35 -49,-35 -12,0 -15,33 -4,43 13,13 53,7 53,-8 z"
       id="path18"
       inkscape:connector-curvature="0" />
    <path
       d="m 2800,8225 c 0,-8 -9,-15 -19,-15 -22,0 -36,-16 -22,-24 13,-9 80,26 81,42 0,6 -9,12 -20,12 -11,0 -20,-7 -20,-15 z"
       id="path20"
       inkscape:connector-curvature="0" />
    <path
       d="m 4754,8190 c -5,-5 -43,-10 -84,-12 -108,-4 -90,-23 21,-22 49,1 92,4 95,6 6,7 -6,38 -15,38 -4,0 -11,-4 -17,-10 z"
       id="path22"
       inkscape:connector-curvature="0" />
    <path
       d="m 2296,8065 c -9,-13 -16,-29 -16,-34 0,-25 35,-80 56,-90 25,-11 32,-35 14,-46 -5,-3 -10,-20 -10,-36 0,-23 4,-30 17,-27 12,2 20,17 25,47 4,24 14,51 23,61 21,24 19,99 -4,128 -27,32 -83,30 -105,-3 z"
       id="path24"
       inkscape:connector-curvature="0" />
    <path
       d="m 5922,7808 c -16,-16 -15,-45 1,-50 23,-9 37,4 37,33 0,30 -17,38 -38,17 z"
       id="path26"
       inkscape:connector-curvature="0" />
    <path
       d="m 2330,7696 c 0,-50 7,-62 61,-102 35,-26 49,-43 49,-60 0,-17 -6,-24 -19,-24 -17,0 -18,-3 -6,-36 7,-20 19,-41 28,-45 8,-5 18,-22 22,-39 3,-16 14,-39 24,-52 24,-31 34,-72 33,-135 -1,-52 -1,-53 28,-53 19,0 38,-9 51,-24 44,-51 72,-112 65,-142 -3,-12 1,-35 9,-50 8,-16 15,-35 15,-41 0,-25 28,-13 55,23 26,34 30,36 70,31 29,-4 48,-2 63,9 25,17 29,49 7,58 -8,3 -15,16 -15,28 0,13 -7,32 -15,42 -8,11 -15,33 -15,48 0,48 -26,88 -58,88 -23,0 -31,7 -45,38 -9,21 -17,46 -17,54 0,9 -7,21 -15,28 -8,7 -15,23 -15,35 0,12 -7,28 -15,35 -8,7 -15,18 -15,26 0,7 -6,17 -13,21 -7,4 -24,29 -36,55 -12,26 -33,62 -45,80 -12,18 -25,41 -29,52 -6,16 -14,17 -48,12 -39,-6 -44,-4 -80,34 -49,51 -79,54 -79,6 z"
       id="path28"
       inkscape:connector-curvature="0" />
    <path
       d="m 3399,7266 c -19,-25 -43,-46 -54,-48 -15,-2 -19,-10 -17,-30 1,-14 -2,-29 -8,-33 -7,-4 -7,-13 1,-26 8,-16 13,-18 25,-8 17,14 94,128 94,139 0,4 7,13 15,20 20,17 19,30 -4,30 -10,0 -33,-20 -52,-44 z"
       id="path30"
       inkscape:connector-curvature="0" />
    <path
       d="m 3290,7086 c 0,-8 -19,-29 -42,-48 -70,-54 -81,-66 -75,-82 5,-12 12,-14 32,-6 59,23 101,67 120,128 5,18 2,22 -14,22 -12,0 -21,-6 -21,-14 z"
       id="path32"
       inkscape:connector-curvature="0" />
    <path
       d="m 2811,6846 c -12,-14 -5,-46 10,-46 9,0 29,33 29,49 0,16 -25,14 -39,-3 z"
       id="path34"
       inkscape:connector-curvature="0" />
    <path
       d="m 2904,6815 c -8,-20 3,-48 16,-40 13,8 13,55 0,55 -6,0 -13,-7 -16,-15 z"
       id="path36"
       inkscape:connector-curvature="0" />
    <path
       d="m 3356,6785 c -15,-8 -35,-15 -44,-15 -22,0 -82,-69 -82,-94 1,-25 45,-60 66,-52 8,3 18,14 22,25 11,30 92,111 121,122 20,8 23,12 11,19 -22,14 -61,12 -94,-5 z"
       id="path38"
       inkscape:connector-curvature="0" />
    <path
       d="m 2612,6769 c -29,-26 -23,-44 14,-44 27,0 29,-3 32,-45 2,-25 9,-50 16,-55 8,-6 16,-22 18,-35 3,-22 8,-25 43,-25 37,0 40,2 46,35 4,19 3,40 -2,46 -5,6 -6,26 -2,44 8,44 -13,59 -71,53 -40,-5 -45,-3 -48,18 -4,31 -19,33 -46,8 z"
       id="path40"
       inkscape:connector-curvature="0" />
    <path
       d="m 2932,6731 c 4,-13 18,-16 19,-4 0,4 -5,9 -11,12 -7,2 -11,-2 -8,-8 z"
       id="path42"
       inkscape:connector-curvature="0" />
    <path
       d="m 3043,6593 c -18,-7 -16,-32 3,-40 18,-7 35,14 27,34 -5,14 -10,15 -30,6 z"
       id="path44"
       inkscape:connector-curvature="0" />
    <path
       d="m 3206,5314 c -19,-18 -20,-28 -6,-54 16,-29 40,-13 40,25 0,40 -13,51 -34,29 z"
       id="path46"
       inkscape:connector-curvature="0" />
  </g>
</svg>
